<?xml version="1.0" encoding="iso-8859-1"?>
<!-- Uploaded to: SVG Repo, www.svgrepo.com, Generator: SVG Repo Mixer Tools -->
<svg version="1.1" id="Layer_1" xmlns="http://www.w3.org/2000/svg" xmlns:xlink="http://www.w3.org/1999/xlink" 
	 viewBox="0 0 490 490" xml:space="preserve">
<g>
	<g id="XMLID_26_">
		<g>
			<path style="fill:#F2F2F2;" d="M265,180c0,1.69-0.07,3.35-0.21,5H220v53.11c-4.8,1.23-9.82,1.89-15,1.89c-33.13,0-60-26.87-60-60
				s26.87-60,60-60S265,146.87,265,180z"/>
			<path style="fill:#F2F2F2;" d="M220,185h44.79c-2.12,25.72-20.47,46.85-44.79,53.11V185z"/>
			<path style="fill:#FFD248;" d="M340,185v120H220v-66.89c24.32-6.26,42.67-27.39,44.79-53.11H340z"/>
			<polygon style="fill:#CCCCCC;" points="480,25 480,65 460,65 30,65 10,65 10,25 			"/>
			<path style="fill:#31C0D8;" d="M460,65v300H245H30V65H460z M340,305V185h-75.21c0.14-1.65,0.21-3.31,0.21-5
				c0-33.13-26.87-60-60-60s-60,26.87-60,60s26.87,60,60,60c5.18,0,10.2-0.66,15-1.89V305H340z"/>
		</g>
		<g>
			<path d="M480,15H10C4.477,15,0,19.477,0,25v40c0,5.523,4.477,10,10,10h10v290c0,5.523,4.478,10,10,10h205v80h-20v20h60v-20h-20
				v-80h205c5.522,0,10-4.477,10-10V75h10c5.522,0,10-4.477,10-10V25C490,19.477,485.522,15,480,15z M450,355H40V75h410V355z
				 M470,55h-10H30H20V35h450V55z"/>
			<path d="M205,250c1.669,0,3.337-0.066,5-0.185V305c0,5.523,4.477,10,10,10h120c5.522,0,10-4.477,10-10V185
				c0-5.523-4.478-10-10-10h-65.198c-2.575-36.271-32.887-65-69.802-65c-38.598,0-70,31.402-70,70S166.402,250,205,250z M330,295
				H230v-49.602c22.031-8.408,38.359-27.433,43.373-50.398H330V295z M230,223.326V195h22.701
				C248.949,206.964,240.813,217.087,230,223.326z M205,130c25.883,0,47.232,19.769,49.749,45H220c-5.523,0-10,4.477-10,10v44.728
				c-1.661,0.166-3.328,0.272-5,0.272c-27.57,0-50-22.43-50-50S177.43,130,205,130z"/>
			<rect x="395" y="100" width="30" height="20"/>
			<rect x="350" y="100" width="30" height="20"/>
			<rect x="395" y="130" width="30" height="20"/>
		</g>
	</g>
</g>
</svg>